<svg xmlns="http://www.w3.org/2000/svg" viewBox="0 0 220 50" width="220" height="50">
  <!-- Tooth icon -->
  <path d="M22 8 C18 8 14 10 12 14 C10 18 10 22 11 26 C12 30 13 36 16 40 C17 42 18 43 20 43 C22 43 23 41 24 38 C25 35 25 32 26 32 C27 32 27 35 28 38 C29 41 30 43 32 43 C34 43 35 42 36 40 C39 36 40 30 41 26 C42 22 42 18 40 14 C38 10 34 8 30 8 C28 8 26 9 26 9 C26 9 24 8 22 8Z" fill="#1E73BE"/>
  <!-- PROPEL text -->
  <text x="52" y="34" font-family="Space Grotesk, Inter, sans-serif" font-weight="700" font-size="22" fill="#1E73BE" letter-spacing="-0.5">PROPEL</text>
  <!-- DENTAL text -->
  <text x="52" y="47" font-family="Space Grotesk, Inter, sans-serif" font-weight="500" font-size="11" fill="#F58220" letter-spacing="3">DENTAL</text>
</svg>
